<?xml version="1.0" encoding="UTF-8" standalone="no"?>
<!-- Created with Inkscape (http://www.inkscape.org/) -->

<svg
   width="25.423353mm"
   height="21.565296mm"
   viewBox="0 0 25.423353 21.565296"
   version="1.1"
   id="svg5"
   sodipodi:docname="inkporter-svg-o1xlvh75.svg"
   xmlns:inkscape="http://www.inkscape.org/namespaces/inkscape"
   xmlns:sodipodi="http://sodipodi.sourceforge.net/DTD/sodipodi-0.dtd"
   xmlns="http://www.w3.org/2000/svg"
   xmlns:svg="http://www.w3.org/2000/svg">
  <sodipodi:namedview
     id="namedview7"
     pagecolor="#ffffff"
     bordercolor="#999999"
     borderopacity="1"
     inkscape:pageshadow="0"
     inkscape:pageopacity="0"
     inkscape:pagecheckerboard="0"
     inkscape:document-units="mm"
     showgrid="false"
     inkscape:zoom="0.44186308"
     inkscape:cx="1211.9139"
     inkscape:cy="972.02057"
     inkscape:window-width="1366"
     inkscape:window-height="697"
     inkscape:window-x="-8"
     inkscape:window-y="-8"
     inkscape:window-maximized="1"
     inkscape:current-layer="layer1" />
  <defs
     id="defs2" />
  <g
     inkscape:label="Camada 1"
     inkscape:groupmode="layer"
     id="layer1"
     transform="translate(-455.54236,-282.02582)">
    <g
       id="g1315"
       transform="matrix(0.26458333,0,0,0.26458333,454.50738,279.2932)"
       style="fill:#ffffff;fill-opacity:1">
      <rect
         x="21.492001"
         y="36.118999"
         transform="matrix(0.7071,0.7071,-0.7071,0.7071,44.7059,-26.5459)"
         width="65.807999"
         height="9.1450005"
         id="rect1223"
         style="fill:#ffffff;fill-opacity:1" />
      <g
         id="g1231"
         style="fill:#ffffff;fill-opacity:1">
        <path
           d="m 27.304,32.959 c -0.825,0.409 -1.825,0.072 -2.233,-0.753 v 0 C 24.662,31.381 25,30.381 25.825,29.972 l 3.584,-1.776 c 0.825,-0.409 1.824,-0.071 2.233,0.754 v 0 c 0.409,0.825 0.071,1.825 -0.753,2.233 z"
           id="path1225"
           style="fill:#ffffff;fill-opacity:1" />
        <path
           d="m 16.922,39.164 c -0.789,0.47 -1.809,0.211 -2.278,-0.578 v 0 c -0.47,-0.789 -0.211,-1.809 0.579,-2.278 l 3.427,-2.04 c 0.788,-0.47 1.808,-0.211 2.277,0.578 v 0 c 0.47,0.789 0.211,1.809 -0.578,2.277 z"
           id="path1227"
           style="fill:#ffffff;fill-opacity:1" />
        <path
           d="M 6.539,45.369 C 5.786,45.9 4.747,45.719 4.216,44.967 v 0 c -0.53,-0.753 -0.35,-1.792 0.403,-2.323 l 3.27,-2.304 c 0.752,-0.53 1.792,-0.35 2.322,0.403 v 0 c 0.53,0.752 0.35,1.792 -0.403,2.322 z"
           id="path1229"
           style="fill:#ffffff;fill-opacity:1" />
      </g>
      <g
         id="g1239"
         style="fill:#ffffff;fill-opacity:1">
        <path
           d="m 65.089,70.024 c -0.526,0.757 -1.564,0.941 -2.32,0.415 v 0 c -0.755,-0.526 -0.94,-1.565 -0.414,-2.321 l 2.286,-3.28 c 0.525,-0.755 1.564,-0.941 2.32,-0.415 v 0 c 0.755,0.526 0.94,1.564 0.415,2.319 z"
           id="path1233"
           style="fill:#ffffff;fill-opacity:1" />
        <path
           d="m 58.977,80.461 c -0.465,0.793 -1.484,1.057 -2.274,0.592 v 0 c -0.791,-0.467 -1.056,-1.484 -0.59,-2.275 l 2.021,-3.438 c 0.465,-0.791 1.483,-1.056 2.274,-0.59 v 0 c 0.791,0.465 1.055,1.482 0.59,2.274 z"
           id="path1235"
           style="fill:#ffffff;fill-opacity:1" />
        <path
           d="m 52.865,90.898 c -0.404,0.829 -1.404,1.171 -2.23,0.767 v 0 c -0.827,-0.405 -1.17,-1.402 -0.766,-2.229 l 1.757,-3.594 c 0.404,-0.827 1.402,-1.17 2.229,-0.765 v 0 c 0.827,0.403 1.17,1.401 0.766,2.229 z"
           id="path1237"
           style="fill:#ffffff;fill-opacity:1" />
      </g>
      <path
         d="m 59.759,64.613 c -0.59,0.708 -1.641,0.802 -2.348,0.211 v 0 c -0.706,-0.59 -0.8,-1.642 -0.21,-2.349 l 2.564,-3.067 c 0.589,-0.706 1.641,-0.802 2.348,-0.211 v 0 c 0.706,0.59 0.8,1.641 0.211,2.347 z"
         id="path1241"
         style="fill:#ffffff;fill-opacity:1" />
      <path
         d="m 52.76,74.477 c -0.533,0.75 -1.57,0.924 -2.318,0.391 v 0 C 49.694,74.335 49.52,73.298 50.053,72.55 l 2.314,-3.247 c 0.531,-0.747 1.569,-0.923 2.316,-0.39 v 0 c 0.748,0.533 0.922,1.57 0.39,2.318 z"
         id="path1243"
         style="fill:#ffffff;fill-opacity:1" />
      <path
         d="m 45.759,84.341 c -0.475,0.791 -1.5,1.044 -2.288,0.569 v 0 c -0.789,-0.477 -1.043,-1.499 -0.567,-2.288 l 2.064,-3.427 c 0.475,-0.789 1.5,-1.043 2.287,-0.567 v 0 c 0.789,0.475 1.042,1.498 0.568,2.288 z"
         id="path1245"
         style="fill:#ffffff;fill-opacity:1" />
      <path
         d="m 54.202,59.292 c -0.629,0.661 -1.675,0.686 -2.335,0.056 v 0 c -0.66,-0.629 -0.685,-1.676 -0.056,-2.337 l 2.736,-2.867 c 0.628,-0.66 1.675,-0.687 2.336,-0.057 v 0 c 0.66,0.63 0.684,1.675 0.056,2.335 z"
         id="path1247"
         style="fill:#ffffff;fill-opacity:1" />
      <path
         d="m 46.638,68.593 c -0.576,0.707 -1.613,0.812 -2.318,0.236 v 0 C 43.615,68.253 43.51,67.216 44.086,66.51 l 2.5,-3.061 c 0.574,-0.705 1.612,-0.812 2.316,-0.235 v 0 c 0.706,0.576 0.81,1.613 0.235,2.318 z"
         id="path1249"
         style="fill:#ffffff;fill-opacity:1" />
      <path
         d="m 39.073,77.896 c -0.521,0.751 -1.553,0.936 -2.3,0.414 v 0 c -0.749,-0.522 -0.935,-1.551 -0.413,-2.3 l 2.264,-3.256 c 0.521,-0.749 1.551,-0.934 2.299,-0.412 v 0 c 0.749,0.521 0.934,1.549 0.413,2.3 z"
         id="path1251"
         style="fill:#ffffff;fill-opacity:1" />
      <path
         d="m 48.646,53.97 c -0.669,0.616 -1.709,0.571 -2.324,-0.099 v 0 c -0.614,-0.668 -0.569,-1.71 0.1,-2.325 l 2.908,-2.667 c 0.668,-0.614 1.709,-0.571 2.324,0.099 v 0 c 0.613,0.669 0.568,1.709 -0.1,2.323 z"
         id="path1253"
         style="fill:#ffffff;fill-opacity:1" />
      <path
         d="m 40.517,62.709 c -0.619,0.665 -1.656,0.699 -2.318,0.081 v 0 C 37.537,62.172 37.501,61.135 38.12,60.472 l 2.686,-2.876 c 0.617,-0.662 1.655,-0.698 2.317,-0.08 v 0 c 0.663,0.619 0.698,1.655 0.08,2.318 z"
         id="path1255"
         style="fill:#ffffff;fill-opacity:1" />
      <path
         d="m 32.387,71.449 c -0.567,0.713 -1.604,0.827 -2.312,0.26 v 0 c -0.709,-0.568 -0.826,-1.602 -0.258,-2.312 l 2.465,-3.083 c 0.567,-0.71 1.603,-0.825 2.312,-0.259 v 0 c 0.71,0.568 0.825,1.602 0.258,2.312 z"
         id="path1257"
         style="fill:#ffffff;fill-opacity:1" />
      <path
         d="m 43.09,48.648 c -0.708,0.57 -1.743,0.456 -2.312,-0.253 v 0 c -0.568,-0.708 -0.454,-1.744 0.255,-2.313 l 3.079,-2.467 c 0.707,-0.569 1.743,-0.457 2.312,0.253 v 0 c 0.568,0.708 0.454,1.743 -0.253,2.312 z"
         id="path1259"
         style="fill:#ffffff;fill-opacity:1" />
      <path
         d="m 34.396,56.826 c -0.661,0.621 -1.699,0.587 -2.318,-0.074 v 0 c -0.619,-0.662 -0.585,-1.699 0.076,-2.319 l 2.872,-2.689 c 0.66,-0.619 1.698,-0.587 2.317,0.075 v 0 c 0.619,0.66 0.585,1.697 -0.075,2.318 z"
         id="path1261"
         style="fill:#ffffff;fill-opacity:1" />
      <path
         d="m 25.701,65.004 c -0.614,0.673 -1.656,0.719 -2.325,0.105 v 0 c -0.67,-0.615 -0.716,-1.654 -0.103,-2.324 l 2.665,-2.913 c 0.613,-0.671 1.654,-0.716 2.323,-0.104 v 0 c 0.671,0.613 0.717,1.652 0.104,2.325 z"
         id="path1263"
         style="fill:#ffffff;fill-opacity:1" />
      <path
         d="m 37.534,43.326 c -0.748,0.524 -1.777,0.341 -2.3,-0.408 v 0 c -0.522,-0.748 -0.338,-1.778 0.41,-2.301 l 3.251,-2.267 c 0.746,-0.523 1.777,-0.341 2.3,0.408 v 0 c 0.522,0.748 0.339,1.777 -0.408,2.3 z"
         id="path1265"
         style="fill:#ffffff;fill-opacity:1" />
      <path
         d="m 28.275,50.942 c -0.705,0.578 -1.743,0.476 -2.319,-0.229 v 0 c -0.576,-0.705 -0.474,-1.743 0.23,-2.319 l 3.058,-2.504 c 0.703,-0.577 1.742,-0.475 2.317,0.229 v 0 c 0.577,0.705 0.474,1.741 -0.23,2.319 z"
         id="path1267"
         style="fill:#ffffff;fill-opacity:1" />
      <path
         d="m 19.015,58.559 c -0.66,0.633 -1.707,0.609 -2.337,-0.05 v 0 c -0.63,-0.661 -0.608,-1.706 0.052,-2.337 l 2.865,-2.74 c 0.66,-0.632 1.706,-0.608 2.335,0.051 v 0 c 0.631,0.66 0.608,1.703 -0.051,2.337 z"
         id="path1269"
         style="fill:#ffffff;fill-opacity:1" />
      <path
         d="m 31.978,38.004 c -0.788,0.478 -1.812,0.226 -2.289,-0.563 v 0 c -0.476,-0.787 -0.223,-1.812 0.565,-2.29 l 3.422,-2.067 c 0.786,-0.477 1.812,-0.226 2.289,0.563 v 0 c 0.476,0.787 0.223,1.812 -0.563,2.288 z"
         id="path1271"
         style="fill:#ffffff;fill-opacity:1" />
      <path
         d="m 22.153,45.059 c -0.747,0.536 -1.785,0.363 -2.319,-0.383 v 0 c -0.533,-0.747 -0.361,-1.785 0.386,-2.319 l 3.244,-2.318 c 0.746,-0.535 1.785,-0.362 2.318,0.384 v 0 c 0.534,0.747 0.362,1.783 -0.385,2.319 z"
         id="path1273"
         style="fill:#ffffff;fill-opacity:1" />
      <path
         d="M 12.329,52.113 C 11.622,52.707 10.57,52.614 9.98,51.908 v 0 C 9.389,51.201 9.481,50.151 10.187,49.56 l 3.065,-2.57 c 0.706,-0.592 1.757,-0.499 2.348,0.206 v 0 c 0.592,0.706 0.5,1.754 -0.207,2.349 z"
         id="path1275"
         style="fill:#ffffff;fill-opacity:1" />
      <g
         id="g1279"
         style="fill:#ffffff;fill-opacity:1">
        <path
           d="m 100,18.328 v -8 c -19.636,0 -22.542,2.165 -31.688,11.338 l -0.925,0.926 2.828,2.829 -5.577,-5.577 c -5.663,-5.663 -14.843,-5.663 -20.506,0 l 31.112,31.113 c 5.662,-5.663 5.662,-14.844 0,-20.506 l -2.201,-2.201 0.934,-0.935 c 7.766,-7.79 8.961,-8.987 26.023,-8.987 z"
           id="path1277"
           style="fill:#ffffff;fill-opacity:1" />
      </g>
    </g>
  </g>
</svg>
