<?xml version="1.0" encoding="UTF-8" standalone="no"?>
<!-- Created with Inkscape (http://www.inkscape.org/) -->

<svg
   width="698.34338"
   height="265.02139"
   viewBox="0 0 698.34338 265.02139"
   version="1.1"
   id="SVGRoot"
   sodipodi:docname="inkporter-svg-yjoe2fid.svg"
   inkscape:version="1.1.1 (3bf5ae0d25, 2021-09-20)"
   xmlns:inkscape="http://www.inkscape.org/namespaces/inkscape"
   xmlns:sodipodi="http://sodipodi.sourceforge.net/DTD/sodipodi-0.dtd"
   xmlns="http://www.w3.org/2000/svg"
   xmlns:svg="http://www.w3.org/2000/svg">
  <sodipodi:namedview
     id="namedview829"
     pagecolor="#ffffff"
     bordercolor="#999999"
     borderopacity="1"
     inkscape:pageshadow="0"
     inkscape:pageopacity="0"
     inkscape:pagecheckerboard="0"
     inkscape:document-units="px"
     showgrid="false"
     inkscape:zoom="0.45611672"
     inkscape:cx="446.15773"
     inkscape:cy="165.52781"
     inkscape:window-width="1366"
     inkscape:window-height="697"
     inkscape:window-x="-8"
     inkscape:window-y="-8"
     inkscape:window-maximized="1"
     inkscape:current-layer="text1596" />
  <defs
     id="defs824">
    <rect
       x="203.89519"
       y="493.29477"
       width="673.0733"
       height="363.94193"
       id="rect1598" />
  </defs>
  <g
     inkscape:label="Camada 1"
     inkscape:groupmode="layer"
     id="layer1"
     transform="translate(-73.356328,-410.13444)">
    <g
       aria-label="PetS"
       transform="matrix(7.8597745,0,0,7.8597745,-1468.1972,-3515.6398)"
       id="text1596"
       style="font-size:40px;line-height:1.25;white-space:pre;shape-inside:url(#rect1598);stroke-width:0.12743">
      <g
         id="g887"
         style="fill:#ffffff;fill-opacity:1">
        <path
           d="m 232.77453,506.86813 q 0.36,1.92 -0.16,3.56 -0.48,1.64 -1.6,3 -1.08,1.36 -2.64,2.48 -1.56,1.12 -3.28,2 -1.68,0.84 -3.4,1.44 -1.72,0.6 -3.16,0.96 -0.88,0.28 -1.76,0.48 -0.88,0.16 -1.8,0.36 -0.28,2.64 -0.32,5 0,2.32 -0.2,4.08 -0.12,1.08 -0.84,1.56 -0.72,0.52 -1.52,0.48 -0.8,-0.04 -1.48,-0.64 -0.68,-0.56 -0.68,-1.64 0,-1.84 0,-3.84 0,-2.04 0.08,-4.2 l -6,0.76 q -1.08,0.16 -1.88,0.56 -0.8,0.4 -1.2,0.92 -0.4,0.48 -0.24,1.04 0.12,0.52 0.96,0.96 0.52,0.28 1.16,-0.16 0.64,-0.44 0.84,-1.16 0.2,-0.76 0.72,-1.16 0.52,-0.44 1.12,-0.52 0.6,-0.08 1.2,0.16 0.6,0.2 0.96,0.72 0.36,0.52 0.36,1.36 0.04,0.8 -0.48,1.88 -0.56,1.12 -1.44,1.96 -0.88,0.8 -1.96,1.24 -1.08,0.44 -2.24,0.4 -1.16,0 -2.24,-0.56 -1.44,-0.76 -2.28,-1.88 -0.84,-1.12 -1.12,-2.36 -0.28,-1.28 0.08,-2.56 0.32,-1.32 1.2,-2.44 0.88,-1.12 2.36,-1.92 1.48,-0.8 3.52,-1.08 l 6.72,-0.88 q 0.08,-3.08 0.2,-6.16 0.16,-3.08 0.28,-6.04 0.08,-0.76 -0.08,-0.88 -0.12,-0.12 -0.56,0.04 -0.92,0.28 -1.6,1.36 -0.6,0.96 -1.48,1.08 -0.88,0.12 -1.6,-0.32 -0.72,-0.48 -1.04,-1.36 -0.32,-0.88 0.28,-1.84 0.84,-1.4 1.96,-2.24 1.16,-0.84 2.36,-1.16 1.2,-0.36 2.36,-0.16 1.16,0.2 2.04,0.92 0.92,0.68 1.44,1.92 0.52,1.2 0.44,2.88 l -0.04,1 q 1.16,-1.6 2.64,-2.72 1.52,-1.12 3.48,-1.76 1.52,-0.56 3.16,-0.68 1.64,-0.12 3.08,0.2 2.12,0.52 3.48,1.96 1.4,1.4 1.84,3.6 z m -13.04,8.32 q 3.72,-1.24 5.68,-2.76 1.96,-1.52 2.6,-2.88 0.64,-1.36 0.16,-2.36 -0.48,-1.04 -1.72,-1.36 -0.96,-0.2 -2.16,-0.04 -1.16,0.16 -2.2,0.6 -1.32,0.52 -2.36,1.52 -1.04,1 -1.8,2.32 -0.76,1.28 -1.32,2.84 -0.52,1.56 -0.88,3.2 0.28,-0.08 0.56,-0.12 0.28,-0.08 0.56,-0.16 z m 0.48,-5 q -0.48,0 -0.64,-0.32 -0.12,-0.32 -0.04,-0.72 0.12,-0.44 0.36,-0.84 0.28,-0.4 0.56,-0.48 0.36,-0.12 0.6,0.24 0.24,0.32 0.24,0.8 0.04,0.44 -0.2,0.88 -0.24,0.4 -0.88,0.44 z m 2.28,-0.2 q 0.24,0.12 0.4,0.56 0.2,0.4 0.24,0.96 0.08,0.52 0,1.04 -0.08,0.48 -0.44,0.76 -0.12,0.12 -0.36,0.2 -0.36,0.08 -0.56,-0.36 -0.2,-0.44 -0.52,-0.64 -0.28,-0.16 -0.76,-0.12 -0.48,0.04 -0.72,-0.28 -0.2,-0.24 -0.12,-0.64 0.08,-0.36 0.44,-0.68 0.4,-0.32 0.84,-0.52 0.48,-0.2 0.92,-0.28 0.44,-0.12 0.64,0 z m -0.44,-0.56 q -0.36,-0.16 -0.44,-0.6 -0.04,-0.48 0.12,-0.96 0.16,-0.36 0.6,-0.68 0.48,-0.32 0.8,-0.04 0.24,0.2 0.2,0.64 -0.04,0.44 -0.24,0.84 -0.16,0.4 -0.48,0.68 -0.28,0.24 -0.56,0.12 z m 1.68,2.84 q -0.32,-0.6 -0.08,-1 0.24,-0.44 0.64,-0.64 0.4,-0.24 0.8,-0.16 0.4,0.04 0.48,0.4 0.08,0.2 0,0.48 -0.08,0.24 -0.24,0.48 -0.32,0.52 -0.8,0.8 -0.48,0.24 -0.8,-0.36 z m 0.96,-2.48 q -0.32,0.32 -0.72,0.48 -0.36,0.16 -0.68,-0.08 -0.24,-0.2 -0.16,-0.56 0.08,-0.4 0.32,-0.76 0.28,-0.4 0.6,-0.64 0.36,-0.24 0.68,-0.12 0.44,0.16 0.32,0.76 -0.08,0.6 -0.36,0.92 z"
           style="font-family:'Cat Paw';-inkscape-font-specification:'Cat Paw';fill:#ffffff;fill-opacity:1"
           id="path4230" />
        <path
           d="m 242.97444,528.54813 q 1.16,-0.04 1.72,0.68 0.6,0.72 0.6,1.56 0.04,0.88 -0.52,1.6 -0.56,0.76 -1.68,0.8 -3.2,0.08 -5.68,-0.72 -2.44,-0.8 -4.08,-2.4 -1.6,-1.56 -2.36,-3.84 -0.72,-2.32 -0.44,-5.28 0.28,-2.92 1.52,-4.88 1.24,-2 2.92,-3.08 1.68,-1.08 3.56,-1.32 1.88,-0.24 3.48,0.28 1.6,0.52 2.64,1.8 1.04,1.24 1.04,3.16 0,1.56 -0.84,2.92 -0.84,1.32 -2.04,2.32 -0.72,0.64 -1.64,1.2 -0.88,0.56 -1.84,1 -0.92,0.44 -1.84,0.76 -0.92,0.28 -1.76,0.44 0.44,0.92 1.2,1.52 0.76,0.6 1.72,0.96 0.96,0.32 2.04,0.44 1.12,0.12 2.28,0.08 z m 0.12,-9.68 q -0.04,-0.48 -0.56,-0.6 -0.52,-0.16 -1.08,0 -0.56,0.16 -0.96,0.68 -0.36,0.48 -0.12,1.28 0.2,0.6 0.64,0.64 0.48,0 0.92,-0.32 0.48,-0.32 0.8,-0.8 0.36,-0.52 0.36,-0.88 z m -0.56,-3.68 q -0.36,-0.2 -0.88,0.04 -0.52,0.2 -0.92,0.64 -0.4,0.4 -0.6,0.88 -0.16,0.48 0.12,0.76 0.4,0.4 0.96,0.28 0.56,-0.16 1.04,-0.6 0.2,-0.16 0.36,-0.44 0.16,-0.28 0.2,-0.56 0.08,-0.32 0,-0.6 -0.04,-0.28 -0.28,-0.4 z m -3.8,-0.88 q -0.32,0.56 -0.36,1.16 0,0.56 0.44,0.84 0.36,0.24 0.76,-0.04 0.44,-0.28 0.76,-0.76 0.32,-0.48 0.44,-1 0.12,-0.56 -0.12,-0.88 -0.2,-0.24 -0.48,-0.24 -0.24,0 -0.56,0.12 -0.28,0.12 -0.52,0.36 -0.24,0.2 -0.36,0.44 z m -1.68,-0.36 q -0.36,0.04 -0.8,0.48 -0.4,0.44 -0.64,0.96 -0.2,0.48 -0.12,0.96 0.12,0.44 0.76,0.52 0.84,0.08 1.24,-0.36 0.44,-0.48 0.48,-1.08 0.08,-0.6 -0.2,-1.08 -0.24,-0.48 -0.72,-0.4 z m -1.76,5.24 q 0.12,0.24 0.36,0.36 0.24,0.08 0.52,0.16 0.28,0.04 0.52,0.12 0.28,0.04 0.44,0.16 0.16,0.16 0.28,0.44 0.12,0.24 0.24,0.48 0.12,0.24 0.28,0.44 0.16,0.16 0.4,0.12 0.24,0 0.48,-0.12 0.52,-0.28 0.72,-0.92 0.24,-0.64 0.28,-1.32 0.04,-0.68 -0.12,-1.24 -0.16,-0.6 -0.44,-0.8 -0.24,-0.16 -0.84,-0.12 -0.6,0 -1.24,0.16 -0.64,0.16 -1.2,0.48 -0.52,0.32 -0.68,0.76 -0.2,0.44 0,0.84 z"
           style="font-family:'Cat Paw';-inkscape-font-specification:'Cat Paw';fill:#ffffff;fill-opacity:1"
           id="path4232" />
        <path
           d="m 258.29442,525.98813 q 0.44,-1.08 1.32,-1.32 0.88,-0.24 1.68,0.08 0.8,0.32 1.24,1.12 0.48,0.8 0.04,1.88 -0.56,1.44 -1.56,2.48 -0.96,1.08 -2.12,1.6 -1.16,0.56 -2.48,0.48 -1.28,-0.08 -2.52,-0.96 -1.4,-1 -2.08,-3.08 -0.64,-2.12 -0.84,-4.76 -0.16,-2.64 0,-5.52 0.2,-2.88 0.48,-5.44 h -1.88 q -1.16,0 -1.72,-0.72 -0.56,-0.76 -0.56,-1.6 0,-0.88 0.56,-1.6 0.56,-0.76 1.72,-0.76 0.44,0 1.04,0.04 0.64,0 1.36,0 0.12,-1.24 0.12,-1.84 0,-1.16 0.72,-1.72 0.76,-0.6 1.6,-0.6 0.88,0 1.6,0.6 0.76,0.56 0.76,1.72 0,0.32 -0.04,0.8 -0.04,0.48 -0.12,1.08 0.8,0.04 1.68,0.04 0.88,0 2.04,0 1.16,0 1.72,0.72 0.6,0.72 0.6,1.6 0,0.88 -0.6,1.6 -0.56,0.72 -1.72,0.72 -0.68,0 -1.84,0 -1.12,0 -2.4,-0.04 -0.24,2.08 -0.44,4.6 -0.2,2.48 -0.24,4.72 0,2.2 0.28,3.84 0.28,1.6 1,1.88 0.2,0.08 0.44,-0.04 0.24,-0.16 0.44,-0.44 0.24,-0.28 0.4,-0.6 0.2,-0.32 0.32,-0.56 z m -0.28,-3.72 q -0.16,-0.08 -0.4,-0.04 -0.24,0 -0.48,0.04 -0.24,0 -0.48,-0.04 -0.2,-0.04 -0.36,-0.2 -0.24,-0.24 -0.24,-0.72 0.04,-0.4 0.44,-0.8 0.4,-0.4 0.88,-0.68 0.52,-0.28 1,-0.44 0.48,-0.16 0.72,-0.08 0.28,0.12 0.56,0.6 0.28,0.44 0.4,1 0.16,0.56 0.08,1.16 -0.04,0.56 -0.4,0.92 -0.12,0.12 -0.36,0.28 -0.24,0.08 -0.4,-0.04 -0.16,-0.12 -0.32,-0.28 -0.16,-0.2 -0.32,-0.4 -0.16,-0.2 -0.32,-0.28 z m 2.76,-0.52 q -0.4,-0.64 -0.2,-1.12 0.24,-0.52 0.68,-0.8 0.44,-0.28 0.88,-0.28 0.48,0 0.6,0.4 0.12,0.32 -0.08,0.8 -0.16,0.48 -0.48,0.88 -0.28,0.36 -0.68,0.48 -0.4,0.08 -0.72,-0.36 z m -4.24,-1.92 q -0.56,0.08 -0.76,-0.28 -0.16,-0.36 -0.08,-0.84 0.08,-0.48 0.32,-0.92 0.24,-0.48 0.52,-0.6 0.4,-0.16 0.72,0.2 0.32,0.32 0.4,0.84 0.08,0.52 -0.16,1 -0.24,0.48 -0.96,0.6 z m 2.96,-3.72 q 0.28,0.2 0.28,0.68 0.04,0.48 -0.12,0.96 -0.16,0.48 -0.44,0.84 -0.28,0.32 -0.64,0.2 -0.44,-0.16 -0.56,-0.64 -0.12,-0.52 0,-1.04 0.04,-0.2 0.2,-0.44 0.2,-0.24 0.4,-0.4 0.2,-0.2 0.44,-0.24 0.24,-0.08 0.44,0.08 z m 2.2,2.64 q -0.32,0.44 -0.76,0.72 -0.44,0.24 -0.88,0 -0.32,-0.16 -0.28,-0.6 0.04,-0.44 0.28,-0.88 0.28,-0.44 0.64,-0.76 0.4,-0.32 0.76,-0.24 0.24,0.04 0.36,0.28 0.12,0.2 0.12,0.48 0,0.24 -0.08,0.56 -0.04,0.28 -0.16,0.44 z"
           style="font-family:'Cat Paw';-inkscape-font-specification:'Cat Paw';fill:#ffffff;fill-opacity:1"
           id="path4234" />
        <path
           d="m 272.89434,509.06813 q 0.6,1.12 1.76,2.08 1.16,0.92 2.52,1.84 1.36,0.92 2.76,1.92 1.44,1 2.56,2.24 1.16,1.24 1.84,2.8 0.72,1.52 0.64,3.56 -0.08,2.36 -1.36,4.24 -1.24,1.88 -3.2,3.08 -1.92,1.2 -4.24,1.64 -2.32,0.44 -4.56,-0.04 -2.2,-0.44 -4.04,-1.96 -1.84,-1.48 -2.76,-4.12 -0.64,-1.8 -0.36,-3.28 0.32,-1.48 1.2,-2.56 0.92,-1.08 2.24,-1.64 1.32,-0.56 2.76,-0.48 1.44,0.04 2.8,0.8 1.4,0.76 2.44,2.36 0.64,0.96 0.32,1.84 -0.28,0.88 -1,1.36 -0.72,0.44 -1.64,0.36 -0.92,-0.08 -1.56,-1.04 -0.44,-0.64 -1.04,-0.88 -0.56,-0.24 -1.04,-0.12 -0.48,0.08 -0.76,0.56 -0.24,0.44 0.04,1.2 0.6,1.72 1.8,2.48 1.24,0.72 2.68,0.76 1.44,0.04 2.84,-0.48 1.4,-0.56 2.36,-1.36 1.84,-1.64 1.32,-4.16 -0.2,-0.84 -0.96,-1.6 -0.72,-0.8 -1.76,-1.56 -1,-0.8 -2.24,-1.6 -1.24,-0.84 -2.44,-1.76 -1.16,-0.92 -2.24,-1.96 -1.04,-1.08 -1.72,-2.32 -1.32,-2.36 -1.44,-4.4 -0.12,-2.04 0.68,-3.56 0.84,-1.52 2.48,-2.48 1.68,-0.96 3.96,-1.16 1.84,-0.16 3.72,0.2 1.88,0.36 3.36,1.28 1.52,0.92 2.4,2.44 0.92,1.52 0.84,3.64 -0.08,1.24 -0.52,2.4 -0.4,1.12 -1.16,2 -0.76,0.84 -1.68,0.8 -0.92,-0.08 -1.56,-0.64 -0.64,-0.6 -0.8,-1.52 -0.16,-0.92 0.6,-1.76 0.24,-0.24 0.36,-0.6 0.12,-0.4 0.12,-0.8 0.04,-0.44 -0.08,-0.84 -0.08,-0.4 -0.28,-0.68 -0.52,-0.68 -1.68,-1 -1.12,-0.36 -2.36,-0.36 -1.2,0 -2.24,0.36 -1.04,0.32 -1.4,1 -0.24,0.48 -0.12,1.36 0.16,0.84 0.84,2.12 z m 1.68,0.52 q -0.16,-0.12 -0.4,-0.16 -0.2,-0.04 -0.44,-0.08 -0.2,-0.04 -0.36,-0.12 -0.16,-0.12 -0.2,-0.32 0,-0.24 0.04,-0.4 0.12,-0.44 0.56,-0.72 0.48,-0.28 1,-0.4 0.52,-0.16 1,-0.12 0.48,0 0.68,0.16 0.16,0.2 0.24,0.68 0.12,0.44 0.08,0.96 0,0.52 -0.16,1 -0.16,0.48 -0.48,0.68 -0.36,0.24 -0.64,0.12 -0.4,-0.12 -0.56,-0.6 -0.12,-0.48 -0.36,-0.68 z m -0.76,-2.44 q -0.68,-0.08 -0.64,-0.64 0.08,-0.6 0.44,-1.08 0.4,-0.6 0.8,-0.64 0.36,-0.04 0.56,0.32 0.2,0.36 0.16,0.84 0,0.48 -0.32,0.88 -0.32,0.36 -1,0.32 z m 3.56,-2.56 q 0.2,0.24 0.12,0.68 -0.08,0.44 -0.36,0.84 -0.24,0.36 -0.6,0.6 -0.32,0.2 -0.6,0.04 -0.32,-0.2 -0.36,-0.64 0,-0.44 0.2,-0.88 0.08,-0.16 0.28,-0.36 0.2,-0.2 0.44,-0.32 0.24,-0.12 0.48,-0.12 0.24,-0.04 0.4,0.16 z m 1.88,4 q 0.04,0.32 -0.24,0.72 -0.24,0.36 -0.6,0.64 -0.36,0.28 -0.76,0.28 -0.36,0 -0.52,-0.48 -0.2,-0.64 0.08,-1.04 0.32,-0.4 0.76,-0.56 0.44,-0.16 0.84,-0.04 0.44,0.12 0.44,0.48 z m -0.56,-1.2 q -0.36,0.32 -0.8,0.48 -0.44,0.12 -0.76,-0.2 -0.24,-0.24 -0.12,-0.6 0.16,-0.4 0.44,-0.72 0.32,-0.36 0.72,-0.52 0.4,-0.2 0.72,-0.08 0.2,0.12 0.24,0.36 0.04,0.2 0,0.44 -0.04,0.24 -0.16,0.48 -0.12,0.24 -0.28,0.36 z"
           style="font-family:'Cat Paw';-inkscape-font-specification:'Cat Paw';fill:#ffffff;fill-opacity:1"
           id="path4236" />
      </g>
    </g>
  </g>
</svg>
