<?xml version="1.0" encoding="UTF-8" standalone="no"?>
<!-- Created with Inkscape (http://www.inkscape.org/) -->

<svg
   width="102.20148mm"
   height="135.46666mm"
   viewBox="0 0 102.20148 135.46666"
   version="1.1"
   id="svg5"
   sodipodi:docname="inkporter-svg-grytob1f.svg"
   xmlns:inkscape="http://www.inkscape.org/namespaces/inkscape"
   xmlns:sodipodi="http://sodipodi.sourceforge.net/DTD/sodipodi-0.dtd"
   xmlns="http://www.w3.org/2000/svg"
   xmlns:svg="http://www.w3.org/2000/svg">
  <sodipodi:namedview
     id="namedview7"
     pagecolor="#ffffff"
     bordercolor="#999999"
     borderopacity="1"
     inkscape:pageshadow="0"
     inkscape:pageopacity="0"
     inkscape:pagecheckerboard="0"
     inkscape:document-units="mm"
     showgrid="false"
     inkscape:zoom="0.44186308"
     inkscape:cx="1211.9139"
     inkscape:cy="1845.5944"
     inkscape:window-width="1366"
     inkscape:window-height="697"
     inkscape:window-x="-8"
     inkscape:window-y="-8"
     inkscape:window-maximized="1"
     inkscape:current-layer="layer1" />
  <defs
     id="defs2" />
  <g
     inkscape:label="Camada 1"
     inkscape:groupmode="layer"
     id="layer1"
     transform="translate(-312.36498,-384.95215)">
    <g
       id="g2029"
       transform="matrix(0.26458333,0,0,0.26458333,295.7325,384.95215)"
       style="fill:#ffffff;fill-opacity:1">
      <path
         d="m 434.158,410.319 c 10.065,-49.313 15.227,-103.397 14.969,-157.867 -0.245,-52.162 -5.402,-103.795 -14.971,-150.77 H 77.839 C 67.777,151 62.616,205.085 62.872,259.553 c 0.244,52.169 5.399,103.801 14.966,150.766 z M 255.996,360.542 c -41.185,0 -76.943,-12.417 -76.943,-53.079 0,-37.899 34.516,-68.732 76.943,-68.732 42.427,0 76.943,30.833 76.943,68.732 0,40.64 -35.719,53.079 -76.943,53.079 z m 80.302,-183.56 c 22.98,-3.959 44.792,11.441 48.748,34.429 4.422,25.685 -15.261,49.346 -41.647,49.346 -19.97,0 -37.953,-14.25 -41.529,-35.027 -3.957,-22.984 11.441,-44.79 34.428,-48.748 z m -80.302,-27.91 c 23.269,0 42.201,18.931 42.201,42.201 0,23.27 -18.931,42.201 -42.201,42.201 -23.27,0 -42.201,-18.931 -42.201,-42.201 0,-23.27 18.933,-42.201 42.201,-42.201 z m -87.462,27.3 c 23.269,0 42.201,18.931 42.201,42.201 0,23.269 -18.931,42.201 -42.201,42.201 -23.27,0 -42.201,-18.931 -42.201,-42.201 0.001,-23.27 18.932,-42.201 42.201,-42.201 z"
         id="path1970"
         style="fill:#ffffff;fill-opacity:1" />
      <path
         d="m 77.467,65.961 h 357.062 l 10.46,-43.967 C 447.657,10.776 439.135,0 427.613,0 H 84.382 C 72.85,0 64.34,10.784 67.006,21.995 Z"
         id="path1972"
         style="fill:#ffffff;fill-opacity:1" />
      <path
         d="M 434.528,446.04 H 77.467 L 67.008,490.005 C 64.338,501.224 72.86,512 84.382,512 h 343.23 c 11.532,0 20.042,-10.784 17.376,-21.995 z"
         id="path1974"
         style="fill:#ffffff;fill-opacity:1" />
      <g
         id="g1976"
         style="fill:#ffffff;fill-opacity:1" />
      <g
         id="g1978"
         style="fill:#ffffff;fill-opacity:1" />
      <g
         id="g1980"
         style="fill:#ffffff;fill-opacity:1" />
      <g
         id="g1982"
         style="fill:#ffffff;fill-opacity:1" />
      <g
         id="g1984"
         style="fill:#ffffff;fill-opacity:1" />
      <g
         id="g1986"
         style="fill:#ffffff;fill-opacity:1" />
      <g
         id="g1988"
         style="fill:#ffffff;fill-opacity:1" />
      <g
         id="g1990"
         style="fill:#ffffff;fill-opacity:1" />
      <g
         id="g1992"
         style="fill:#ffffff;fill-opacity:1" />
      <g
         id="g1994"
         style="fill:#ffffff;fill-opacity:1" />
      <g
         id="g1996"
         style="fill:#ffffff;fill-opacity:1" />
      <g
         id="g1998"
         style="fill:#ffffff;fill-opacity:1" />
      <g
         id="g2000"
         style="fill:#ffffff;fill-opacity:1" />
      <g
         id="g2002"
         style="fill:#ffffff;fill-opacity:1" />
      <g
         id="g2004"
         style="fill:#ffffff;fill-opacity:1" />
    </g>
  </g>
</svg>
