<?xml version="1.0" encoding="UTF-8" standalone="no"?>
<!-- Created with Inkscape (http://www.inkscape.org/) -->

<svg
   width="135.46622mm"
   height="135.46655mm"
   viewBox="0 0 135.46622 135.46655"
   version="1.1"
   id="svg5"
   sodipodi:docname="inkporter-svg-oxzgk1mz.svg"
   xmlns:inkscape="http://www.inkscape.org/namespaces/inkscape"
   xmlns:sodipodi="http://sodipodi.sourceforge.net/DTD/sodipodi-0.dtd"
   xmlns="http://www.w3.org/2000/svg"
   xmlns:svg="http://www.w3.org/2000/svg">
  <sodipodi:namedview
     id="namedview7"
     pagecolor="#ffffff"
     bordercolor="#999999"
     borderopacity="1"
     inkscape:pageshadow="0"
     inkscape:pageopacity="0"
     inkscape:pagecheckerboard="0"
     inkscape:document-units="mm"
     showgrid="false"
     inkscape:zoom="0.44186308"
     inkscape:cx="1211.9139"
     inkscape:cy="972.02057"
     inkscape:window-width="1366"
     inkscape:window-height="697"
     inkscape:window-x="-8"
     inkscape:window-y="-8"
     inkscape:window-maximized="1"
     inkscape:current-layer="layer1" />
  <defs
     id="defs2" />
  <g
     inkscape:label="Camada 1"
     inkscape:groupmode="layer"
     id="layer1"
     transform="translate(-322.07939,-205.3151)">
    <g
       id="g1048"
       transform="matrix(0.26458333,0,0,0.26458333,322.07922,205.31525)"
       style="fill:#ffffff;fill-opacity:1">
      <g
         id="g993"
         style="fill:#ffffff;fill-opacity:1">
        <g
           id="g991"
           style="fill:#ffffff;fill-opacity:1">
          <path
             d="M 505.379,107.294 C 495.732,97.647 414.259,16.174 404.698,6.613 384.545,-13.545 354.015,16.941 374.192,37.119 l 12.234,12.234 -58.83,58.828 L 276.584,57.17 C 256.431,37.012 225.901,67.498 246.078,87.676 l 23.524,23.524 -28.484,28.484 48.81,48.81 c 20.153,20.153 -10.326,50.69 -30.506,30.506 l -48.81,-48.81 -17.287,17.287 48.81,48.81 c 20.152,20.152 -10.326,50.69 -30.506,30.506 l -48.81,-48.81 -17.286,17.287 48.81,48.81 c 20.152,20.152 -10.326,50.69 -30.506,30.506 l -48.81,-48.81 -43.737,43.737 c -8.424,8.424 -8.424,22.082 0,30.506 l 35.088,35.088 -99.766,99.765 c -20.152,20.152 10.326,50.69 30.506,30.506 l 99.763,-99.763 35.088,35.088 c 8.423,8.424 22.082,8.424 30.506,0 l 198.315,-198.314 23.524,23.524 c 19.988,19.991 50.94,-10.072 30.506,-30.506 -6.397,-6.395 -37.504,-37.504 -51.012,-51.012 l 58.83,-58.83 12.234,12.234 c 20.151,20.155 50.689,-10.322 30.507,-30.505 z m -132.076,46.595 c -5.501,-5.501 -9.7,-9.7 -15.201,-15.201 L 416.93,79.86 432.131,95.061 Z"
             id="path989"
             style="fill:#ffffff;fill-opacity:1" />
        </g>
      </g>
      <g
         id="g995"
         style="fill:#ffffff;fill-opacity:1" />
      <g
         id="g997"
         style="fill:#ffffff;fill-opacity:1" />
      <g
         id="g999"
         style="fill:#ffffff;fill-opacity:1" />
      <g
         id="g1001"
         style="fill:#ffffff;fill-opacity:1" />
      <g
         id="g1003"
         style="fill:#ffffff;fill-opacity:1" />
      <g
         id="g1005"
         style="fill:#ffffff;fill-opacity:1" />
      <g
         id="g1007"
         style="fill:#ffffff;fill-opacity:1" />
      <g
         id="g1009"
         style="fill:#ffffff;fill-opacity:1" />
      <g
         id="g1011"
         style="fill:#ffffff;fill-opacity:1" />
      <g
         id="g1013"
         style="fill:#ffffff;fill-opacity:1" />
      <g
         id="g1015"
         style="fill:#ffffff;fill-opacity:1" />
      <g
         id="g1017"
         style="fill:#ffffff;fill-opacity:1" />
      <g
         id="g1019"
         style="fill:#ffffff;fill-opacity:1" />
      <g
         id="g1021"
         style="fill:#ffffff;fill-opacity:1" />
      <g
         id="g1023"
         style="fill:#ffffff;fill-opacity:1" />
    </g>
  </g>
</svg>
